<?xml version="1.0" encoding="utf-8"?>
<!-- Generator: Adobe Illustrator 15.1.0, SVG Export Plug-In . SVG Version: 6.00 Build 0)  -->
<!DOCTYPE svg PUBLIC "-//W3C//DTD SVG 1.1//EN" "http://www.w3.org/Graphics/SVG/1.1/DTD/svg11.dtd">
<svg version="1.1" id="Layer_1" xmlns="http://www.w3.org/2000/svg" xmlns:xlink="http://www.w3.org/1999/xlink" x="0px" y="0px"
	 width="1280px" height="960px" viewBox="0 0 1280 960" enable-background="new 0 0 1280 960" xml:space="preserve">
<g>
	<g id="Cloud">
	</g>
	<path fill="#FFFFFF" d="M230.332,152.961l65.14,0.283c0,0,26.758,1.979,21.445-33.108c-4.966-32.795-40.194-19.303-40.194-19.303
		s8.745-49.822-46.391-49.822c-55.135,0-46.39,49.822-46.39,49.822s-35.229-13.492-40.194,19.303
		c-5.313,35.088,21.445,33.108,21.445,33.108L230.332,152.961z"/>
</g>
<g>
	<g id="Cloud_1_">
	</g>
	<path fill="#FFFFFF" d="M1030.263,593.86l96.133,0.418c0,0,39.49,2.923,31.649-48.859c-7.328-48.401-59.318-28.488-59.318-28.488
		s12.905-73.528-68.464-73.528s-68.462,73.528-68.462,73.528s-51.991-19.913-59.318,28.485
		c-7.841,51.783,31.648,48.862,31.648,48.862L1030.263,593.86z"/>
</g>
<g>
	<g id="Cloud_2_">
	</g>
	<path fill="#FFFFFF" d="M449.706,844.621l53.688,0.233c0,0,22.053,1.632,17.675-27.287c-4.093-27.03-33.128-15.91-33.128-15.91
		s7.208-41.063-38.234-41.063c-45.441,0-38.234,41.063-38.234,41.063s-29.036-11.12-33.127,15.909
		c-4.379,28.919,17.675,27.288,17.675,27.288L449.706,844.621z"/>
</g>
</svg>
