<?xml version="1.0" encoding="utf-8"?>
<!-- Generator: Adobe Illustrator 15.1.0, SVG Export Plug-In . SVG Version: 6.00 Build 0)  -->
<!DOCTYPE svg PUBLIC "-//W3C//DTD SVG 1.1//EN" "http://www.w3.org/Graphics/SVG/1.1/DTD/svg11.dtd">
<svg version="1.1" id="Layer_1" xmlns="http://www.w3.org/2000/svg" xmlns:xlink="http://www.w3.org/1999/xlink" x="0px" y="0px"
	 width="1280px" height="960px" viewBox="0 0 1280 960" enable-background="new 0 0 1280 960" xml:space="preserve">
<g>
	<g>
		<defs>
			<rect id="SVGID_1_" x="918.224" y="182.236" width="186.693" height="118.203"/>
		</defs>
		<clipPath id="SVGID_2_">
			<use xlink:href="#SVGID_1_"  overflow="visible"/>
		</clipPath>
		<g clip-path="url(#SVGID_2_)">
			<defs>
				<rect id="SVGID_3_" x="918.224" y="182.236" width="186.693" height="118.203"/>
			</defs>
			<clipPath id="SVGID_4_">
				<use xlink:href="#SVGID_3_"  overflow="visible"/>
			</clipPath>
			<path clip-path="url(#SVGID_4_)" fill="#FFFFFF" d="M921.891,262.973c-16.937,44.078,30.287,37.056,30.287,37.056l91.027-0.432
				c0,0,59.836,6.901,61.479-34.505c2.321-58.501-13.02-73.549-30.144-80.647c-29.249-12.123-50.938,29.613-50.938,29.613
				c-40.422-8.955-59.232,30.758-59.232,30.758S933.3,233.283,921.891,262.973"/>
		</g>
	</g>
</g>
<g>
	<g>
		<defs>
			<rect id="SVGID_5_" x="221.887" y="267.854" width="251.417" height="159.181"/>
		</defs>
		<clipPath id="SVGID_6_">
			<use xlink:href="#SVGID_5_"  overflow="visible"/>
		</clipPath>
		<g clip-path="url(#SVGID_6_)">
			<defs>
				<rect id="SVGID_7_" x="221.887" y="267.854" width="251.417" height="159.181"/>
			</defs>
			<clipPath id="SVGID_8_">
				<use xlink:href="#SVGID_7_"  overflow="visible"/>
			</clipPath>
			<path clip-path="url(#SVGID_8_)" fill="#FFFFFF" d="M226.825,376.581c-22.808,59.359,40.787,49.904,40.787,49.904l122.584-0.582
				c0,0,80.58,9.293,82.792-46.468c3.126-78.782-17.533-99.047-40.594-108.606c-39.389-16.325-68.597,39.88-68.597,39.88
				c-54.435-12.06-79.767,41.422-79.767,41.422S242.189,336.599,226.825,376.581"/>
		</g>
	</g>
</g>
<g>
	<g>
		<defs>
			<rect id="SVGID_9_" x="675.819" y="734.595" width="186.693" height="118.202"/>
		</defs>
		<clipPath id="SVGID_10_">
			<use xlink:href="#SVGID_9_"  overflow="visible"/>
		</clipPath>
		<g clip-path="url(#SVGID_10_)">
			<defs>
				<rect id="SVGID_11_" x="675.819" y="734.595" width="186.693" height="118.202"/>
			</defs>
			<clipPath id="SVGID_12_">
				<use xlink:href="#SVGID_11_"  display="none" overflow="visible"/>
			</clipPath>
			<path clip-path="url(#SVGID_12_)" fill="#FFFFFF" d="M679.486,815.331c-16.937,44.078,30.287,37.057,30.287,37.057l91.027-0.433
				c0,0,59.836,6.901,61.479-34.505c2.321-58.501-13.02-73.549-30.144-80.647c-29.249-12.122-50.938,29.613-50.938,29.613
				c-40.422-8.955-59.232,30.759-59.232,30.759S690.896,785.642,679.486,815.331"/>
		</g>
	</g>
</g>
</svg>
