<?xml version="1.0" encoding="utf-8"?>
<!-- Generator: Adobe Illustrator 15.1.0, SVG Export Plug-In . SVG Version: 6.00 Build 0)  -->
<!DOCTYPE svg PUBLIC "-//W3C//DTD SVG 1.1//EN" "http://www.w3.org/Graphics/SVG/1.1/DTD/svg11.dtd">
<svg version="1.1" id="Layer_1" xmlns="http://www.w3.org/2000/svg" xmlns:xlink="http://www.w3.org/1999/xlink" x="0px" y="0px"
	 width="1280px" height="960px" viewBox="0 0 1280 960" enable-background="new 0 0 1280 960" xml:space="preserve">
<g id="Cloud">
	<path fill="#FFFFFF" d="M81.908,212.967c-8.736,22.736,15.623,19.115,15.623,19.115l46.954-0.223c0,0,30.865,3.56,31.712-17.798
		c1.198-30.176-6.716-37.938-15.549-41.6c-15.087-6.253-26.275,15.275-26.275,15.275c-20.85-4.62-30.554,15.866-30.554,15.866
		S87.793,197.653,81.908,212.967z"/>
</g>
<path fill="#FFFFFF" d="M1024.58,609.96l54.578,0.237c0,0,22.42,1.658,17.969-27.74c-4.16-27.479-33.678-16.175-33.678-16.175
	s7.327-41.744-38.869-41.744c-46.196,0.001-38.869,41.745-38.869,41.745s-29.518-11.305-33.678,16.174
	c-4.451,29.398,17.969,27.74,17.969,27.74L1024.58,609.96z"/>
<g id="Cloud_1_">
	<path fill="#FFFFFF" d="M393.898,428.398c-18.069,47.023,32.312,39.531,32.312,39.531l97.112-0.462c0,0,63.836,7.364,65.588-36.811
		c2.478-62.411-13.888-78.465-32.159-86.039c-31.203-12.931-54.342,31.594-54.342,31.594c-43.123-9.554-63.192,32.814-63.192,32.814
		S406.069,396.723,393.898,428.398z"/>
</g>
<path fill="#FFFFFF" d="M277.385,844.266l34.569,0.15c0,0,14.2,1.051,11.381-17.57c-2.635-17.404-21.331-10.244-21.331-10.244
	s4.641-26.439-24.619-26.439c-29.259,0-24.619,26.439-24.619,26.439s-18.696-7.16-21.331,10.244
	c-2.819,18.621,11.381,17.57,11.381,17.57L277.385,844.266z"/>
<path fill="#FFFFFF" d="M999.698,106.854l53.957,0.235c0,0,22.164,1.64,17.764-27.425c-4.112-27.166-33.295-15.99-33.295-15.99
	s7.243-41.268-38.426-41.268c-45.67,0-38.427,41.268-38.427,41.268s-29.181-11.176-33.294,15.99
	c-4.4,29.064,17.764,27.425,17.764,27.425L999.698,106.854z"/>
</svg>
