<?xml version="1.0" encoding="utf-8"?>
<!-- Generator: Adobe Illustrator 15.1.0, SVG Export Plug-In . SVG Version: 6.00 Build 0)  -->
<!DOCTYPE svg PUBLIC "-//W3C//DTD SVG 1.1//EN" "http://www.w3.org/Graphics/SVG/1.1/DTD/svg11.dtd">
<svg version="1.1" id="Layer_1" xmlns="http://www.w3.org/2000/svg" xmlns:xlink="http://www.w3.org/1999/xlink" x="0px" y="0px"
	 width="1280px" height="960px" viewBox="0 0 1280 960" enable-background="new 0 0 1280 960" xml:space="preserve">
<g id="Cloud">
	<path fill="#FFFFFF" d="M759.084,528.523c-35.107,91.37,62.785,76.815,62.785,76.815l188.695-0.895
		c0,0,124.039,14.305,127.442-71.527c4.813-121.271-26.988-152.466-62.486-167.181c-60.632-25.128-105.592,61.389-105.592,61.389
		c-83.791-18.564-122.785,63.759-122.785,63.759S782.735,466.977,759.084,528.523z"/>
</g>
<path fill="#FFFFFF" d="M317.002,342.866l90.475,0.393c0,0,37.166,2.749,29.786-45.986c-6.896-45.551-55.828-26.812-55.828-26.812
	s12.146-69.2-64.434-69.2c-76.579,0.001-64.433,69.2-64.433,69.2s-48.931-18.74-55.828,26.811
	c-7.379,48.735,29.786,45.986,29.786,45.986L317.002,342.866z"/>
<path fill="#FFFFFF" d="M640,940.906l57.37,0.249c0,0,23.566,1.742,18.888-29.16c-4.373-28.884-35.4-17.001-35.4-17.001
	s7.702-43.88-40.857-43.88c-48.559,0.001-40.857,43.88-40.857,43.88s-31.027-11.883-35.4,17.001
	c-4.679,30.902,18.887,29.16,18.887,29.16L640,940.906z"/>
</svg>
