<?xml version="1.0" encoding="utf-8"?>
<!-- Generator: Adobe Illustrator 15.1.0, SVG Export Plug-In . SVG Version: 6.00 Build 0)  -->
<!DOCTYPE svg PUBLIC "-//W3C//DTD SVG 1.1//EN" "http://www.w3.org/Graphics/SVG/1.1/DTD/svg11.dtd">
<svg version="1.1" xmlns="http://www.w3.org/2000/svg" xmlns:xlink="http://www.w3.org/1999/xlink" x="0px" y="0px"
	 width="657.983px" height="239.496px" viewBox="0 0 657.983 239.496" enable-background="new 0 0 657.983 239.496"
	 xml:space="preserve">
<g id="Layer_1">
	<g>
		<g id="Layer_3">
			<path fill="#C7B299" stroke="#000000" stroke-width="6.6772" stroke-miterlimit="10" d="M615.813,107.534l-43.878,45.641
				l37.666,1.32l-62.607,68.168c0,0,1.813,9.748-2.737,10.451c-5.227,0.807-18.957-11.525-21.209-18.285
				c-1.864-5.6,10.203-4.852,10.203-4.852l39.881-41.547l-41.286-1.303l49.375-47.655"/>
			<g>
				<polygon fill="#F2F2F2" stroke="#000000" stroke-width="2.7822" stroke-miterlimit="10" points="580.339,186.916 
					566.491,175.308 538.476,205.82 551.083,218.06 				"/>
				<polyline fill="#F2F2F2" stroke="#000000" stroke-width="2.7822" stroke-miterlimit="10" points="562.6,179.542 575.92,191.648 
					571.481,196.347 557.804,184.763 551.781,191.322 565.57,202.326 559.884,208.691 548.042,195.4 543.416,200.433 
					554.496,214.414 552.302,217.359 				"/>
				<polygon fill="none" stroke="#000000" stroke-width="2.7822" stroke-miterlimit="10" points="580.339,186.916 566.491,175.308 
					538.476,205.82 551.083,218.06 				"/>
			</g>
		</g>
		<g id="Layer_2">
			<path display="none" fill="#FFFFFF" stroke="#FF1D25" stroke-width="6.6772" stroke-miterlimit="10" d="M555.667,54.183
				c0,0,19.102,65.131-44.386,89.141"/>
			<g>
				<g>
					<defs>
						<path id="SVGID_1_" d="M572.469,82.03c-13.407,26.927-45.888,36.852-71.69,24.005c-26.061-12.975-37.445-44.773-24.038-71.699
							c13.406-26.926,45.582-36.883,71.642-23.907C574.429,23.397,585.876,55.104,572.469,82.03z"/>
					</defs>
					<clipPath id="SVGID_2_">
						<use xlink:href="#SVGID_1_"  overflow="visible"/>
					</clipPath>
					<circle clip-path="url(#SVGID_2_)" fill="#FFFFFF" cx="524.589" cy="58.191" r="50.08"/>
				</g>
				<g>
					<defs>
						<path id="SVGID_3_" d="M571.58,82.689c-13.407,26.927-45.888,36.852-71.69,24.005c-26.061-12.975-37.445-44.773-24.038-71.699
							c13.406-26.926,45.582-36.883,71.642-23.907C573.54,24.056,584.987,55.762,571.58,82.689z"/>
					</defs>
					<clipPath id="SVGID_4_">
						<use xlink:href="#SVGID_3_"  overflow="visible"/>
					</clipPath>
					<g clip-path="url(#SVGID_4_)">
						<g>
							<path fill="#FFFFFF" stroke="#FF1D25" stroke-width="5.5644" stroke-miterlimit="10" d="M485,110.469
								c-2.745-47.306,18.043-89.058,57.447-115.376"/>
							<path fill="none" stroke="#FF1D25" stroke-width="5.5644" stroke-miterlimit="10" d="M531.225-7.435
								c3.131,4.374,6.261,8.75,9.392,13.123"/>
							<path fill="none" stroke="#FF1D25" stroke-width="5.5644" stroke-miterlimit="10" d="M521.178,0.521
								c3.541,4.048,7.08,8.099,10.623,12.147"/>
							<path fill="none" stroke="#FF1D25" stroke-width="5.5644" stroke-miterlimit="10" d="M512.492,8.844
								c3.896,3.71,7.791,7.419,11.687,11.129"/>
							<path fill="none" stroke="#FF1D25" stroke-width="5.5644" stroke-miterlimit="10" d="M504.243,18.387
								c4.231,3.32,8.464,6.639,12.697,9.959"/>
							<path fill="none" stroke="#FF1D25" stroke-width="5.5644" stroke-miterlimit="10" d="M496.974,28.627
								c4.53,2.903,9.058,5.804,13.587,8.705"/>
							<path fill="none" stroke="#FF1D25" stroke-width="5.5644" stroke-miterlimit="10" d="M491.029,38.902
								c4.772,2.481,9.545,4.963,14.318,7.443"/>
							<path fill="none" stroke="#FF1D25" stroke-width="5.5644" stroke-miterlimit="10" d="M485.787,50.277
								c4.985,2.017,9.973,4.032,14.958,6.05"/>
							<path fill="none" stroke="#FF1D25" stroke-width="5.5644" stroke-miterlimit="10" d="M481.829,61.485
								c5.148,1.558,10.296,3.119,15.444,4.677"/>
							<path fill="none" stroke="#FF1D25" stroke-width="5.5644" stroke-miterlimit="10" d="M478.757,73.694
								c5.274,1.06,10.549,2.121,15.82,3.181"/>
							<path fill="none" stroke="#FF1D25" stroke-width="5.5644" stroke-miterlimit="10" d="M476.863,86.216
								c5.35,0.549,10.701,1.1,16.053,1.646"/>
							<path fill="none" stroke="#FF1D25" stroke-width="5.5644" stroke-miterlimit="10" d="M476.182,98.297
								c5.381,0.056,10.759,0.109,16.137,0.167"/>
						</g>
					</g>
				</g>
				<g>
					<defs>
						<path id="SVGID_5_" d="M572.469,82.03c-13.407,26.927-45.888,36.852-71.69,24.005c-26.061-12.975-37.445-44.773-24.038-71.699
							c13.406-26.926,45.582-36.883,71.642-23.907C574.429,23.397,585.876,55.104,572.469,82.03z"/>
					</defs>
					<clipPath id="SVGID_6_">
						<use xlink:href="#SVGID_5_"  overflow="visible"/>
					</clipPath>
					<g clip-path="url(#SVGID_6_)">
						<g>
							<path fill="#FFFFFF" stroke="#FF1D25" stroke-width="5.5644" stroke-miterlimit="10" d="M505.892,122.754
								c39.405-26.323,60.189-68.067,57.446-115.376"/>
							<path fill="none" stroke="#FF1D25" stroke-width="5.5644" stroke-miterlimit="10" d="M572.119,14.811
								c-5.379,0.137-10.756,0.276-16.134,0.414"/>
							<path fill="none" stroke="#FF1D25" stroke-width="5.5644" stroke-miterlimit="10" d="M571.826,27.624
								c-5.366-0.385-10.729-0.771-16.096-1.156"/>
							<path fill="none" stroke="#FF1D25" stroke-width="5.5644" stroke-miterlimit="10" d="M570.417,39.57
								c-5.308-0.872-10.616-1.746-15.924-2.62"/>
							<path fill="none" stroke="#FF1D25" stroke-width="5.5644" stroke-miterlimit="10" d="M567.775,51.904
								c-5.201-1.375-10.4-2.752-15.599-4.131"/>
							<path fill="none" stroke="#FF1D25" stroke-width="5.5644" stroke-miterlimit="10" d="M563.984,63.877
								c-5.045-1.867-10.09-3.733-15.136-5.6"/>
							<path fill="none" stroke="#FF1D25" stroke-width="5.5644" stroke-miterlimit="10" d="M559.368,74.813
								c-4.857-2.312-9.714-4.624-14.571-6.938"/>
							<path fill="none" stroke="#FF1D25" stroke-width="5.5644" stroke-miterlimit="10" d="M553.448,85.852
								c-4.614-2.763-9.229-5.527-13.843-8.291"/>
							<path fill="none" stroke="#FF1D25" stroke-width="5.5644" stroke-miterlimit="10" d="M546.889,95.763
								c-4.345-3.168-8.693-6.336-13.039-9.505"/>
							<path fill="none" stroke="#FF1D25" stroke-width="5.5644" stroke-miterlimit="10" d="M538.998,105.572
								c-4.024-3.569-8.05-7.138-12.073-10.708"/>
							<path fill="none" stroke="#FF1D25" stroke-width="5.5644" stroke-miterlimit="10" d="M530.149,114.631
								c-3.664-3.938-7.327-7.877-10.989-11.816"/>
							<path fill="none" stroke="#FF1D25" stroke-width="5.5644" stroke-miterlimit="10" d="M520.917,122.454
								c-3.285-4.258-6.572-8.517-9.856-12.776"/>
						</g>
					</g>
				</g>
				<g>
					<defs>
						<path id="SVGID_7_" d="M572.469,82.03c-13.407,26.927-45.888,36.852-71.69,24.005c-26.061-12.975-37.445-44.773-24.038-71.699
							c13.406-26.926,45.17-37.056,71.642-23.907C574.429,23.397,585.876,55.104,572.469,82.03z"/>
					</defs>
					<clipPath id="SVGID_8_">
						<use xlink:href="#SVGID_7_"  overflow="visible"/>
					</clipPath>
					
						<circle clip-path="url(#SVGID_8_)" fill="none" stroke="#000000" stroke-width="6.6772" stroke-miterlimit="10" cx="524.589" cy="58.191" r="50.08"/>
				</g>
			</g>
		</g>
		<g id="Cloud">
			<path fill="#CCCCCC" stroke="#000000" stroke-width="6.6772" stroke-miterlimit="10" d="M460.812,103.06
				c-17.38,45.233,31.081,38.028,31.081,38.028l93.413-0.443c0,0,61.404,7.082,63.09-35.41c2.383-60.035-13.36-75.478-30.934-82.761
				c-30.016-12.44-52.272,30.389-52.272,30.389c-41.48-9.19-60.785,31.565-60.785,31.565S472.52,72.592,460.812,103.06z"/>
		</g>
	</g>
</g>
<g id="Layer_3_1_">
</g>
<g id="Layer_2_1_">
	<g>
		
			<image overflow="visible" width="1979" height="982" xlink:href="1F0E8F86.png"  transform="matrix(0.24 0 0 0.24 7.2417 16.2202)">
		</image>
	</g>
</g>
</svg>
