<?xml version="1.0" encoding="utf-8"?>
<!-- Generator: Adobe Illustrator 15.1.0, SVG Export Plug-In . SVG Version: 6.00 Build 0)  -->
<!DOCTYPE svg PUBLIC "-//W3C//DTD SVG 1.1//EN" "http://www.w3.org/Graphics/SVG/1.1/DTD/svg11.dtd">
<svg version="1.1" xmlns="http://www.w3.org/2000/svg" xmlns:xlink="http://www.w3.org/1999/xlink" x="0px" y="0px" width="425px"
	 height="425px" viewBox="0 0 425 425" enable-background="new 0 0 425 425" xml:space="preserve">
<g id="Layer_3">
	<path fill="#C7B299" stroke="#000000" stroke-width="12" stroke-miterlimit="10" d="M322.186,192.116l-78.855,82.026l67.691,2.375
		L198.51,399.021c0,0,3.258,17.519-4.922,18.783c-9.391,1.452-34.067-20.713-38.114-32.863c-3.353-10.062,18.336-8.718,18.336-8.718
		l71.673-74.662l-74.199-2.34l88.736-85.647"/>
	<g>
		<polygon fill="#F2F2F2" stroke="#000000" stroke-width="5" stroke-miterlimit="10" points="258.437,334.779 233.547,313.913 
			183.199,368.752 205.858,390.748 		"/>
		<polyline fill="#F2F2F2" stroke="#000000" stroke-width="5" stroke-miterlimit="10" points="226.557,321.528 250.495,343.285 
			242.517,351.726 217.937,330.909 207.113,342.697 231.893,362.473 221.676,373.91 200.391,350.026 192.076,359.069 
			211.991,384.194 208.047,389.489 		"/>
		<polygon fill="none" stroke="#000000" stroke-width="5" stroke-miterlimit="10" points="258.437,334.779 233.547,313.913 
			183.199,368.752 205.858,390.748 		"/>
	</g>
</g>
<g id="Layer_2">
	<path display="none" fill="#FFFFFF" stroke="#FF1D25" stroke-width="12" stroke-miterlimit="10" d="M214.094,96.236
		c0,0,34.332,117.052-79.766,160.199"/>
	<g>
		<defs>
			<path id="SVGID_1_" d="M244.291,146.283c-24.094,48.391-82.466,66.229-128.838,43.14c-46.833-23.318-67.294-80.463-43.2-128.853
				c24.095-48.39,81.92-66.284,128.752-42.965C247.813,40.911,268.387,97.893,244.291,146.283z"/>
		</defs>
		<clipPath id="SVGID_2_">
			<use xlink:href="#SVGID_1_"  overflow="visible"/>
		</clipPath>
		<circle clip-path="url(#SVGID_2_)" fill="#FFFFFF" cx="158.247" cy="103.439" r="90"/>
		<g clip-path="url(#SVGID_2_)">
			<g>
				<path fill="#FFFFFF" stroke="#FF1D25" stroke-width="10" stroke-miterlimit="10" d="M87.097,197.391
					C82.162,112.374,119.523,37.342,190.34-9.957"/>
				<path fill="none" stroke="#FF1D25" stroke-width="10" stroke-miterlimit="10" d="M170.171-14.499
					c5.627,7.86,11.25,15.724,16.877,23.583"/>
				<path fill="none" stroke="#FF1D25" stroke-width="10" stroke-miterlimit="10" d="M152.113-0.201
					c6.365,7.275,12.725,14.555,19.09,21.831"/>
				<path fill="none" stroke="#FF1D25" stroke-width="10" stroke-miterlimit="10" d="M136.504,14.757
					c6.999,6.668,14.002,13.332,21.002,20"/>
				<path fill="none" stroke="#FF1D25" stroke-width="10" stroke-miterlimit="10" d="M121.678,31.906
					c7.606,5.966,15.213,11.932,22.82,17.897"/>
				<path fill="none" stroke="#FF1D25" stroke-width="10" stroke-miterlimit="10" d="M108.616,50.31
					c8.14,5.215,16.279,10.429,24.42,15.642"/>
				<path fill="none" stroke="#FF1D25" stroke-width="10" stroke-miterlimit="10" d="M97.933,68.775
					c8.576,4.459,17.152,8.921,25.729,13.378"/>
				<path fill="none" stroke="#FF1D25" stroke-width="10" stroke-miterlimit="10" d="M88.509,89.218
					c8.961,3.625,17.923,7.247,26.884,10.873"/>
				<path fill="none" stroke="#FF1D25" stroke-width="10" stroke-miterlimit="10" d="M81.397,109.36
					c9.253,2.8,18.504,5.604,27.757,8.406"/>
				<path fill="none" stroke="#FF1D25" stroke-width="10" stroke-miterlimit="10" d="M75.88,131.302
					c9.477,1.906,18.954,3.811,28.431,5.716"/>
				<path fill="none" stroke="#FF1D25" stroke-width="10" stroke-miterlimit="10" d="M72.471,153.806
					c9.616,0.986,19.232,1.975,28.849,2.959"/>
				<path fill="none" stroke="#FF1D25" stroke-width="10" stroke-miterlimit="10" d="M71.251,175.515
					c9.667,0.102,19.333,0.199,28.999,0.299"/>
			</g>
		</g>
		<g clip-path="url(#SVGID_2_)">
			<g>
				<path fill="#FFFFFF" stroke="#FF1D25" stroke-width="10" stroke-miterlimit="10" d="M124.64,219.47
					c70.819-47.307,108.172-122.325,103.243-207.348"/>
				<path fill="none" stroke="#FF1D25" stroke-width="10" stroke-miterlimit="10" d="M243.66,25.479
					c-9.664,0.248-19.327,0.497-28.991,0.745"/>
				<path fill="none" stroke="#FF1D25" stroke-width="10" stroke-miterlimit="10" d="M243.136,48.506
					c-9.643-0.691-19.284-1.384-28.927-2.077"/>
				<path fill="none" stroke="#FF1D25" stroke-width="10" stroke-miterlimit="10" d="M240.605,69.977
					c-9.539-1.568-19.078-3.138-28.617-4.708"/>
				<path fill="none" stroke="#FF1D25" stroke-width="10" stroke-miterlimit="10" d="M235.855,92.143
					c-9.346-2.472-18.689-4.948-28.034-7.424"/>
				<path fill="none" stroke="#FF1D25" stroke-width="10" stroke-miterlimit="10" d="M229.041,113.658
					c-9.066-3.353-18.133-6.707-27.199-10.061"/>
				<path fill="none" stroke="#FF1D25" stroke-width="10" stroke-miterlimit="10" d="M220.746,133.312
					c-8.729-4.155-17.457-8.31-26.185-12.469"/>
				<path fill="none" stroke="#FF1D25" stroke-width="10" stroke-miterlimit="10" d="M210.109,153.151
					c-8.293-4.966-16.587-9.932-24.879-14.9"/>
				<path fill="none" stroke="#FF1D25" stroke-width="10" stroke-miterlimit="10" d="M198.322,170.963
					c-7.811-5.695-15.625-11.387-23.435-17.083"/>
				<path fill="none" stroke="#FF1D25" stroke-width="10" stroke-miterlimit="10" d="M184.139,188.591
					c-7.232-6.415-14.467-12.826-21.698-19.243"/>
				<path fill="none" stroke="#FF1D25" stroke-width="10" stroke-miterlimit="10" d="M168.234,204.873
					c-6.583-7.078-13.167-14.157-19.748-21.237"/>
				<path fill="none" stroke="#FF1D25" stroke-width="10" stroke-miterlimit="10" d="M151.646,218.929
					c-5.905-7.652-11.811-15.306-17.715-22.959"/>
			</g>
		</g>
		
			<circle clip-path="url(#SVGID_2_)" fill="none" stroke="#000000" stroke-width="12" stroke-miterlimit="10" cx="158.247" cy="103.439" r="90"/>
	</g>
</g>
<g id="Cloud">
	<path fill="#CCCCCC" stroke="#000000" stroke-width="12" stroke-miterlimit="10" d="M43.629,184.076
		c-31.235,81.291,55.855,68.341,55.855,68.341l167.878-0.796c0,0,110.352,12.728,113.382-63.636
		c4.281-107.891-24.011-135.644-55.594-148.734c-53.939-22.357-93.939,54.613-93.939,54.613
		c-74.546-16.515-109.242,56.727-109.242,56.727S64.668,129.321,43.629,184.076z"/>
</g>
</svg>
