<?xml version="1.0" encoding="utf-8"?>
<!-- Generator: Adobe Illustrator 15.1.0, SVG Export Plug-In . SVG Version: 6.00 Build 0)  -->
<!DOCTYPE svg PUBLIC "-//W3C//DTD SVG 1.1//EN" "http://www.w3.org/Graphics/SVG/1.1/DTD/svg11.dtd">
<svg version="1.1" id="Layer_1" xmlns="http://www.w3.org/2000/svg" xmlns:xlink="http://www.w3.org/1999/xlink" x="0px" y="0px"
	 width="558.106px" height="376.02px" viewBox="0 0 558.106 376.02" enable-background="new 0 0 558.106 376.02"
	 xml:space="preserve">
<path fill="#FFFFFF" d="M279.053,333.431c0,0-18.088,42.589-81.479,42.589c-79.961,0-81.729-53.222-81.729-53.222
	s-60.898,31.475-96.747-5.646c-53.802-55.708,23.165-129.142,23.165-129.142s-76.967-73.437-23.165-129.145
	c35.849-37.119,96.747-5.644,96.747-5.644S117.612,0,197.573,0c63.391,0,81.479,42.59,81.479,42.59S297.141,0,360.533,0
	c79.962,0,81.729,53.223,81.729,53.223s60.898-31.476,96.748,5.644c53.802,55.708-23.165,129.145-23.165,129.145
	s76.967,73.434,23.165,129.142c-35.85,37.12-96.748,5.646-96.748,5.646s-1.767,53.222-81.729,53.222
	C297.141,376.02,279.053,333.431,279.053,333.431z"/>
</svg>
