<?xml version="1.0" encoding="utf-8"?>
<!-- Generator: Adobe Illustrator 15.1.0, SVG Export Plug-In . SVG Version: 6.00 Build 0)  -->
<!DOCTYPE svg PUBLIC "-//W3C//DTD SVG 1.1//EN" "http://www.w3.org/Graphics/SVG/1.1/DTD/svg11.dtd">
<svg version="1.1" id="Layer_1" xmlns="http://www.w3.org/2000/svg" xmlns:xlink="http://www.w3.org/1999/xlink" x="0px" y="0px"
	 width="1280px" height="960px" viewBox="0 0 1280 960" enable-background="new 0 0 1280 960" xml:space="preserve">
<g>
	<g>
		<defs>
			<rect id="SVGID_1_" x="990.134" y="375.494" width="186.693" height="118.203"/>
		</defs>
		<clipPath id="SVGID_2_">
			<use xlink:href="#SVGID_1_"  overflow="visible"/>
		</clipPath>
		<g clip-path="url(#SVGID_2_)">
			<defs>
				<rect id="SVGID_3_" x="990.134" y="375.494" width="186.693" height="118.203"/>
			</defs>
			<clipPath id="SVGID_4_">
				<use xlink:href="#SVGID_3_"  overflow="visible"/>
			</clipPath>
			<path clip-path="url(#SVGID_4_)" fill="#FFFFFF" d="M993.801,456.231c-16.937,44.078,30.287,37.056,30.287,37.056l91.027-0.432
				c0,0,59.836,6.9,61.479-34.505c2.321-58.501-13.02-73.549-30.144-80.647c-29.249-12.123-50.938,29.613-50.938,29.613
				c-40.422-8.955-59.232,30.758-59.232,30.758S1005.21,426.541,993.801,456.231"/>
		</g>
	</g>
</g>
<g>
	<g>
		<defs>
			<rect id="SVGID_5_" x="163.46" y="110.551" width="450.404" height="285.168"/>
		</defs>
		<clipPath id="SVGID_6_">
			<use xlink:href="#SVGID_5_"  overflow="visible"/>
		</clipPath>
		<g clip-path="url(#SVGID_6_)">
			<defs>
				<rect id="SVGID_7_" x="163.46" y="110.551" width="450.404" height="285.168"/>
			</defs>
			<clipPath id="SVGID_8_">
				<use xlink:href="#SVGID_7_"  overflow="visible"/>
			</clipPath>
			<path clip-path="url(#SVGID_8_)" fill="#FFFFFF" d="M172.307,305.331c-40.86,106.339,73.069,89.402,73.069,89.402l219.606-1.043
				c0,0,144.357,16.646,148.32-83.246c5.6-141.136-31.411-177.44-72.723-194.565c-70.564-29.246-122.889,71.443-122.889,71.443
				c-97.519-21.605-142.9,74.206-142.9,74.206S199.832,233.704,172.307,305.331"/>
		</g>
	</g>
</g>
<g>
	<g>
		<defs>
			<rect id="SVGID_9_" x="675.819" y="654.819" width="186.693" height="118.202"/>
		</defs>
		<clipPath id="SVGID_10_">
			<use xlink:href="#SVGID_9_"  overflow="visible"/>
		</clipPath>
		<g clip-path="url(#SVGID_10_)">
			<defs>
				<rect id="SVGID_11_" x="675.819" y="654.819" width="186.693" height="118.202"/>
			</defs>
			<clipPath id="SVGID_12_">
				<use xlink:href="#SVGID_11_"  overflow="visible"/>
			</clipPath>
			<path clip-path="url(#SVGID_12_)" fill="#FFFFFF" d="M679.486,735.556c-16.937,44.078,30.287,37.057,30.287,37.057l91.027-0.433
				c0,0,59.836,6.901,61.479-34.505c2.321-58.501-13.02-73.549-30.144-80.647c-29.249-12.122-50.938,29.613-50.938,29.613
				c-40.422-8.955-59.232,30.759-59.232,30.759S690.896,705.866,679.486,735.556"/>
		</g>
	</g>
</g>
</svg>
