<?xml version="1.0" encoding="utf-8"?>
<!-- Generator: Adobe Illustrator 15.1.0, SVG Export Plug-In . SVG Version: 6.00 Build 0)  -->
<!DOCTYPE svg PUBLIC "-//W3C//DTD SVG 1.1//EN" "http://www.w3.org/Graphics/SVG/1.1/DTD/svg11.dtd">
<svg version="1.1" id="Layer_1" xmlns="http://www.w3.org/2000/svg" xmlns:xlink="http://www.w3.org/1999/xlink" x="0px" y="0px"
	 width="1280px" height="960px" viewBox="0 0 1280 960" enable-background="new 0 0 1280 960" xml:space="preserve">
<g>
	<g id="Cloud">
	</g>
	<path fill="#FFFFFF" d="M230.332,152.961l65.14,0.283c0,0,26.758,1.979,21.445-33.108c-4.966-32.795-40.194-19.303-40.194-19.303
		s8.745-49.822-46.391-49.822c-55.135,0-46.39,49.822-46.39,49.822s-35.229-13.492-40.194,19.303
		c-5.313,35.088,21.445,33.108,21.445,33.108L230.332,152.961z"/>
</g>
<g>
	<g id="Cloud_1_">
	</g>
	<path fill="#FFFFFF" d="M1059.994,623.178l73.944,0.321c0,0,30.375,2.248,24.344-37.582c-5.637-37.229-45.627-21.913-45.627-21.913
		s9.927-56.557-52.661-56.557s-52.66,56.557-52.66,56.557s-39.991-15.316-45.627,21.911c-6.031,39.831,24.344,37.584,24.344,37.584
		L1059.994,623.178z"/>
</g>
<g>
	<g id="Cloud_2_">
	</g>
	<path fill="#FFFFFF" d="M453.815,705.241l65.14,0.283c0,0,26.758,1.98,21.445-33.107c-4.966-32.796-40.194-19.304-40.194-19.304
		s8.745-49.822-46.391-49.822c-55.135,0-46.39,49.822-46.39,49.822s-35.229-13.492-40.194,19.303
		c-5.313,35.088,21.445,33.108,21.445,33.108L453.815,705.241z"/>
</g>
</svg>
