<?xml version="1.0" encoding="utf-8"?>
<!-- Generator: Adobe Illustrator 15.1.0, SVG Export Plug-In . SVG Version: 6.00 Build 0)  -->
<!DOCTYPE svg PUBLIC "-//W3C//DTD SVG 1.1//EN" "http://www.w3.org/Graphics/SVG/1.1/DTD/svg11.dtd">
<svg version="1.1" xmlns="http://www.w3.org/2000/svg" xmlns:xlink="http://www.w3.org/1999/xlink" x="0px" y="0px" width="503px"
	 height="140px" viewBox="0 0 503 140" enable-background="new 0 0 503 140" xml:space="preserve">
<g id="Layer_2">
	<rect x="-21.5" y="9.5" fill="#553D36" stroke="#006837" stroke-miterlimit="10" width="546" height="133"/>
	<polygon fill="#9BC995" points="164,0 165.118,0 507,0 507,26 183.333,26 177.667,36.707 172.333,26 83.392,26 74,48.369 
		66.664,28.964 61,40.881 55.193,26 -12,26 -12,0 153.434,0 156,0 	"/>
</g>
<g id="Layer_1" display="none">
	<path display="inline" fill="#8C6239" d="M35.691,104.806c2.924,0.149,9.948,0.146,11.401,2.689
		c0.939,1.644-0.323,6.185-1.813,7.352c-2.55,1.998-9.941,1.185-12.957,0c-2.88-1.131-9.923-5.447-9.069-8.421
		C24.119,103.412,32.56,104.646,35.691,104.806z"/>
	<path display="inline" fill="#999999" d="M83.155,62.76c-1.853,0.973-3.951,5.569-3.488,7.61c0.342,1.51,3.217,3.802,4.756,3.963
		c2.145,0.225,7.403-0.551,8.244-2.536c0.885-2.09-2.434-6.57-4.122-8.086C87.526,62.797,84.367,62.124,83.155,62.76z"/>
</g>
</svg>
